{
  "asset": {
    "version": "2.0",
    "generator": "THREE.GLTFExporter"
  },
  "scenes": [
    {
      "nodes": [
        0
      ]
    }
  ],
  "scene": 0,
  "nodes": [
    {
      "children": [
        4
      ],
      "matrix": [
        0.01,
        0,
        0,
        0,
        0,
        0.01,
        0,
        0,
        0,
        0,
        0.01,
        0,
        0,
        0,
        0,
        1
      ]
    },
    {
      "matrix": [
        2.220446049250313e-16,
        -2.220446049250313e-16,
        1,
        0,
        1,
        0,
        -2.220446049250313e-16,
        0,
        0,
        1,
        2.220446049250313e-16,
        0,
        5,
        -161.765625,
        1.7763568394002505e-15,
        1
      ],
      "name": "Plane Sculpt",
      "mesh": 0
    },
    {
      "matrix": [
        -1,
        0,
        -1.897149104479467e-15,
        0,
        -1.078404411873331e-31,
        1,
        5.684341886080799e-17,
        0,
        1.897149104479467e-15,
        5.684341886080799e-17,
        -1,
        0,
        -37.9999999999981,
        118.9999999999996,
        -1000.0000000000027,
        1
      ],
      "camera": 0
    },
    {
      "matrix": [
        1,
        0,
        0,
        0,
        0,
        1,
        0,
        0,
        0,
        0,
        1,
        0,
        0,
        1,
        0,
        1
      ],
      "name": "Default Ambient Light"
    },
    {
      "name": "Scene",
      "children": [
        1,
        2,
        3
      ]
    }
  ],
  "bufferViews": [
    {
      "buffer": 0,
      "byteOffset": 0,
      "byteLength": 786432,
      "target": 34962,
      "byteStride": 12
    },
    {
      "buffer": 0,
      "byteOffset": 786432,
      "byteLength": 786432,
      "target": 34962,
      "byteStride": 12
    },
    {
      "buffer": 0,
      "byteOffset": 1572864,
      "byteLength": 393216,
      "target": 34963
    }
  ],
  "buffers": [
    {
      "byteLength": 1966080,
      "uri": "data:application/octet-stream;base64,"
    }
  ],
  "accessors": [
    {
      "bufferView": 0,
      "componentType": 5126,
      "count": 65536,
      "max": [
        301.81085205078125,
        266.0865173339844,
        147.2647247314453
      ],
      "min": [
        -301.37396240234375,
        -309.88787841796875,
        -27.761499404907227
      ],
      "type": "VEC3"
    },
    {
      "bufferView": 1,
      "componentType": 5126,
      "count": 65536,
      "max": [
        0.8733412027359009,
        0.780514657497406,
        1
      ],
      "min": [
        -0.8463566899299622,
        -0.9839640259742737,
        0.08730219304561615
      ],
      "type": "VEC3"
    },
    {
      "bufferView": 2,
      "componentType": 5125,
      "count": 98304,
      "max": [
        65535
      ],
      "min": [
        0
      ],
      "type": "SCALAR"
    }
  ],
  "meshes": [
    {
      "primitives": [
        {
          "mode": 4,
          "attributes": {
            "POSITION": 0,
            "NORMAL": 1
          },
          "extras": {
            "type": "SubdivGeometry",
            "parameters": {
              "width": 604.056884765625,
              "height": 579.7802429199219,
              "depth": 206.89052963256836
            }
          },
          "indices": 2
        }
      ]
    }
  ],
  "cameras": [
    {
      "type": "perspective",
      "perspective": {
        "aspectRatio": 1.3278301886792452,
        "yfov": 0.7853981633974483,
        "zfar": 100000,
        "znear": 70
      }
    }
  ]
}